<svg width="63" height="63" viewBox="0 0 63 63" fill="none" xmlns="http://www.w3.org/2000/svg">
<path d="M31.5532 3C15.7895 3 3 15.7895 3 31.5532C3 47.3169 15.7895 60.1064 31.5532 60.1064C47.3169 60.1064 60.1064 47.3169 60.1064 31.5532C60.1064 15.7895 47.3169 3 31.5532 3Z" stroke="white" stroke-width="5" stroke-miterlimit="10"/>
<path d="M34 39L27 31.5L34 24" stroke="white" stroke-width="5" stroke-linecap="round" stroke-linejoin="round"/>
<path d="M31.5532 3C15.7895 3 3 15.7895 3 31.5532C3 47.3169 15.7895 60.1064 31.5532 60.1064C47.3169 60.1064 60.1064 47.3169 60.1064 31.5532C60.1064 15.7895 47.3169 3 31.5532 3Z" stroke="white" stroke-width="5" stroke-miterlimit="10"/>
<path d="M34 39L27 31.5L34 24" stroke="white" stroke-width="5" stroke-linecap="round" stroke-linejoin="round"/>
</svg>
